<?xml version="1.0" standalone="no"?>
<!DOCTYPE svg PUBLIC "-//W3C//DTD SVG 20010904//EN"
 "http://www.w3.org/TR/2001/REC-SVG-20010904/DTD/svg10.dtd">
<svg version="1.0" xmlns="http://www.w3.org/2000/svg"
 width="85.000000pt" height="64.000000pt" viewBox="0 0 85.000000 64.000000"
 preserveAspectRatio="xMidYMid meet">

<g transform="translate(0.000000,64.000000) scale(0.100000,-0.100000)"
fill="#000000" stroke="none">
<path d="M0 320 l0 -320 85 0 c47 0 85 2 85 3 0 2 -9 47 -20 101 -16 76 -18
105 -10 134 16 57 24 64 79 70 64 6 121 -15 176 -64 l40 -35 -49 35 c-36 26
-59 36 -87 36 -44 0 -86 -32 -93 -70 -2 -14 -10 -52 -17 -85 -8 -42 -9 -70 -2
-90 l10 -30 236 -3 237 -2 -35 59 c-37 64 -47 104 -20 81 8 -7 15 -20 15 -29
0 -13 2 -13 9 -2 11 16 -52 76 -69 66 -19 -12 -59 4 -76 30 -25 38 -13 39 37
3 60 -43 31 -15 -64 62 -89 71 -121 82 -227 76 -45 -3 -61 -2 -40 3 l35 7 -50
6 c-27 3 -58 9 -67 13 -16 6 -18 1 -19 -41 l-2 -49 -7 55 c-3 30 -16 77 -28
103 -18 40 -19 49 -7 53 8 3 20 4 27 1 8 -3 6 -6 -5 -6 -13 -1 -15 -5 -7 -18
5 -10 14 -30 20 -45 8 -24 15 -28 50 -28 l40 0 -16 26 -17 25 29 -7 c16 -3 40
-17 54 -30 14 -12 50 -32 80 -43 30 -11 48 -15 39 -8 -9 7 -17 17 -18 22 -2 6
-5 12 -8 15 -4 3 -3 -1 1 -8 6 -10 1 -11 -21 -6 -33 8 -69 39 -86 74 -7 14
-19 25 -26 25 -8 0 -16 6 -19 14 -5 14 17 12 65 -6 16 -6 16 -5 4 10 -8 10 -9
17 -3 17 6 0 14 -4 17 -10 12 -20 25 -10 25 19 0 16 6 31 12 33 7 3 -9 12 -35
21 -43 15 -47 15 -57 -1 -8 -14 -9 -12 -10 11 0 17 5 27 14 27 25 0 141 -39
161 -54 19 -15 19 -15 -12 -16 -30 0 -33 -3 -33 -29 0 -35 9 -61 21 -61 5 0 9
9 9 19 0 45 185 70 266 36 20 -8 60 -32 88 -52 28 -20 67 -40 86 -43 35 -7 35
-7 8 -14 -21 -6 -40 1 -94 33 -37 23 -82 42 -98 43 -130 7 -217 -42 -192 -108
5 -13 2 -15 -13 -11 -35 9 -12 -16 84 -93 52 -41 113 -82 137 -91 24 -9 68
-31 98 -48 30 -17 63 -31 73 -31 11 0 25 -16 37 -42 l19 -43 0 313 1 312 -425
0 -425 0 0 -320z m210 139 c0 -6 -4 -7 -10 -4 -5 3 -10 11 -10 16 0 6 5 7 10
4 6 -3 10 -11 10 -16z"/>
<path d="M230 456 c0 -2 8 -10 18 -17 15 -13 16 -12 3 4 -13 16 -21 21 -21 13z"/>
<path d="M665 70 c10 -11 20 -20 23 -20 3 0 -3 9 -13 20 -10 11 -20 20 -23 20
-3 0 3 -9 13 -20z"/>
<path d="M731 42 c-1 -8 -6 -10 -13 -6 -10 5 -10 4 -1 -6 15 -16 28 -8 20 12
-4 11 -6 11 -6 0z"/>
</g>
</svg>
